<svg fill="none" height="32" viewBox="0 0 28 32" width="28" xmlns="http://www.w3.org/2000/svg">
    <g filter="url(#filter0_d)">
        <path
            d="M23 10C23 17 14 23 14 23C14 23 5 17 5 10C5 7.61305 5.94821 5.32387 7.63604 3.63604C9.32387 1.94821 11.6131 1 14 1C16.3869 1 18.6761 1.94821 20.364 3.63604C22.0518 5.32387 23 7.61305 23 10Z"
            stroke="#607883" stroke-linecap="round" stroke-linejoin="round" stroke-width="2" />
        <path
            d="M14 13C15.6569 13 17 11.6569 17 10C17 8.34315 15.6569 7 14 7C12.3431 7 11 8.34315 11 10C11 11.6569 12.3431 13 14 13Z"
            stroke="#607883" stroke-linecap="round" stroke-linejoin="round" stroke-width="2" />
    </g>
    <defs>
        <filter color-interpolation-filters="sRGB" filterUnits="userSpaceOnUse" height="32"
            id="filter0_d" width="28" x="0" y="0">
            <feFlood flood-opacity="0" result="BackgroundImageFix" />
            <feColorMatrix in="SourceAlpha" type="matrix"
                values="0 0 0 0 0 0 0 0 0 0 0 0 0 0 0 0 0 0 127 0" />
            <feOffset dy="4" />
            <feGaussianBlur stdDeviation="2" />
            <feColorMatrix type="matrix" values="0 0 0 0 0 0 0 0 0 0 0 0 0 0 0 0 0 0 0.25 0" />
            <feBlend in2="BackgroundImageFix" mode="normal" result="effect1_dropShadow" />
            <feBlend in="SourceGraphic" in2="effect1_dropShadow" mode="normal" result="shape" />
        </filter>
    </defs>
</svg>
