<svg fill="none" height="19" viewBox="0 0 20 19" width="20" xmlns="http://www.w3.org/2000/svg">
    <path
        d="M15.6364 11.6975C15.5305 11.928 15.4989 12.1836 15.5457 12.4315C15.5925 12.6793 15.7155 12.9081 15.8989 13.0882L15.9466 13.134C16.0945 13.2759 16.2119 13.4445 16.2919 13.63C16.372 13.8155 16.4132 14.0144 16.4132 14.2152C16.4132 14.416 16.372 14.6149 16.2919 14.8004C16.2119 14.9859 16.0945 15.1545 15.9466 15.2964C15.7988 15.4385 15.6234 15.5512 15.4302 15.6281C15.2371 15.705 15.0301 15.7446 14.821 15.7446C14.612 15.7446 14.4049 15.705 14.2118 15.6281C14.0187 15.5512 13.8432 15.4385 13.6955 15.2964L13.6477 15.2506C13.4603 15.0744 13.2221 14.9563 12.9641 14.9113C12.7061 14.8664 12.4399 14.8967 12.2 14.9984C11.9647 15.0953 11.7641 15.2561 11.6227 15.4611C11.4814 15.6661 11.4056 15.9063 11.4045 16.1522V16.2821C11.4045 16.6874 11.2369 17.0761 10.9386 17.3627C10.6402 17.6493 10.2356 17.8103 9.81364 17.8103C9.3917 17.8103 8.98705 17.6493 8.68869 17.3627C8.39034 17.0761 8.22273 16.6874 8.22273 16.2821V16.2134C8.21657 15.9604 8.13134 15.7152 7.97813 15.5094C7.82492 15.3036 7.61081 15.1469 7.36364 15.0596C7.12371 14.9578 6.85757 14.9275 6.59953 14.9724C6.34149 15.0174 6.10338 15.1356 5.91591 15.3117L5.86818 15.3576C5.72043 15.4996 5.54497 15.6124 5.35184 15.6893C5.1587 15.7662 4.95168 15.8058 4.74261 15.8058C4.53354 15.8058 4.32652 15.7662 4.13339 15.6893C3.94026 15.6124 3.7648 15.4996 3.61705 15.3576C3.46913 15.2156 3.35178 15.0471 3.27172 14.8616C3.19166 14.676 3.15045 14.4772 3.15045 14.2763C3.15045 14.0755 3.19166 13.8767 3.27172 13.6911C3.35178 13.5056 3.46913 13.3371 3.61705 13.1951L3.66477 13.1493C3.84815 12.9692 3.97117 12.7405 4.01796 12.4926C4.06475 12.2447 4.03316 11.9891 3.92727 11.7586C3.82644 11.5326 3.65901 11.3399 3.4456 11.2041C3.23218 11.0683 2.9821 10.9955 2.72614 10.9945H2.59091C2.16897 10.9945 1.76432 10.8335 1.46597 10.5469C1.16761 10.2603 1 9.8716 1 9.46629C1 9.06099 1.16761 8.67228 1.46597 8.38569C1.76432 8.09909 2.16897 7.93808 2.59091 7.93808H2.6625C2.92579 7.93217 3.18114 7.8503 3.39535 7.70313C3.60956 7.55596 3.77273 7.35028 3.86364 7.11285C3.96952 6.88238 4.00111 6.62673 3.95432 6.37886C3.90753 6.13098 3.78452 5.90226 3.60114 5.72218L3.55341 5.67633C3.40549 5.5344 3.28815 5.36585 3.20809 5.18033C3.12803 4.99481 3.08682 4.79595 3.08682 4.59512C3.08682 4.39429 3.12803 4.19543 3.20809 4.0099C3.28815 3.82438 3.40549 3.65584 3.55341 3.51391C3.70116 3.37182 3.87662 3.2591 4.06975 3.1822C4.26289 3.10529 4.46991 3.0657 4.67898 3.0657C4.88805 3.0657 5.09507 3.10529 5.2882 3.1822C5.48133 3.2591 5.65679 3.37182 5.80455 3.51391L5.85227 3.55976C6.03974 3.73591 6.27785 3.85408 6.5359 3.89902C6.79394 3.94397 7.06008 3.91362 7.3 3.81191H7.36364C7.59891 3.71505 7.79956 3.55422 7.94089 3.34922C8.08222 3.14422 8.15807 2.90399 8.15909 2.65811V2.52821C8.15909 2.12291 8.3267 1.7342 8.62506 1.4476C8.92341 1.16101 9.32806 1 9.75 1C10.1719 1 10.5766 1.16101 10.8749 1.4476C11.1733 1.7342 11.3409 2.12291 11.3409 2.52821V2.59698C11.3419 2.84286 11.4178 3.08309 11.5591 3.28809C11.7004 3.49309 11.9011 3.65392 12.1364 3.75078C12.3763 3.8525 12.6424 3.88284 12.9005 3.83789C13.1585 3.79295 13.3966 3.67478 13.5841 3.49863L13.6318 3.45278C13.7796 3.31069 13.955 3.19797 14.1482 3.12107C14.3413 3.04416 14.5483 3.00458 14.7574 3.00458C14.9665 3.00458 15.1735 3.04416 15.3666 3.12107C15.5597 3.19797 15.7352 3.31069 15.883 3.45278C16.0309 3.59471 16.1482 3.76325 16.2283 3.94878C16.3083 4.1343 16.3495 4.33316 16.3495 4.53399C16.3495 4.73482 16.3083 4.93368 16.2283 5.1192C16.1482 5.30473 16.0309 5.47327 15.883 5.6152L15.8352 5.66105C15.6518 5.84113 15.5288 6.06986 15.482 6.31773C15.4353 6.5656 15.4668 6.82125 15.5727 7.05172V7.11285C15.6736 7.33885 15.841 7.53159 16.0544 7.66735C16.2678 7.80312 16.5179 7.87597 16.7739 7.87695H16.9091C17.331 7.87695 17.7357 8.03796 18.034 8.32456C18.3324 8.61115 18.5 8.99986 18.5 9.40517C18.5 9.81047 18.3324 10.1992 18.034 10.4858C17.7357 10.7724 17.331 10.9334 16.9091 10.9334H16.8375C16.5815 10.9344 16.3315 11.0072 16.118 11.143C15.9046 11.2787 15.7372 11.4715 15.6364 11.6975V11.6975Z"
        stroke="#5C5C5C" stroke-linecap="round" stroke-linejoin="round" stroke-width="2" />
</svg>
